<?xml version="1.0" encoding="UTF-8" standalone="no"?>
<svg
   height="800"
   width="1200"
   viewBox="-64.4277 -32.975 558.3734 197.85"
   version="1.1"
   id="svg10"
   sodipodi:docname="Brave.svg"
   xmlns:inkscape="http://www.inkscape.org/namespaces/inkscape"
   xmlns:sodipodi="http://sodipodi.sourceforge.net/DTD/sodipodi-0.dtd"
   xmlns="http://www.w3.org/2000/svg"
   xmlns:svg="http://www.w3.org/2000/svg">
  <sodipodi:namedview
     id="namedview10"
     pagecolor="#ffffff"
     bordercolor="#000000"
     borderopacity="0.25"
     inkscape:showpageshadow="2"
     inkscape:pageopacity="0.0"
     inkscape:pagecheckerboard="0"
     inkscape:deskcolor="#d1d1d1" />
  <defs
     id="defs6">
    <linearGradient
       gradientUnits="userSpaceOnUse"
       gradientTransform="scale(0.92313,1.08328)"
       id="a"
       y2="60.855999"
       x2="121.664"
       y1="60.855999"
       x1="-0.001">
      <stop
         offset="0%"
         stop-color="#F50"
         id="stop1" />
      <stop
         offset="40.99%"
         stop-color="#F50"
         id="stop2" />
      <stop
         offset="58.2%"
         stop-color="#FF2000"
         id="stop3" />
      <stop
         offset="100%"
         stop-color="#FF2000"
         id="stop4" />
    </linearGradient>
    <linearGradient
       gradientUnits="userSpaceOnUse"
       gradientTransform="scale(1.97888,0.50534)"
       id="b"
       y2="23.504999"
       x2="51.931999"
       y1="23.504999"
       x1="5.8330002">
      <stop
         offset="0%"
         stop-color="#FF452A"
         id="stop5" />
      <stop
         offset="100%"
         stop-color="#FF2000"
         id="stop6" />
    </linearGradient>
  </defs>
  <g
     fill="none"
     id="g10">
    <path
       fill="#131525"
       d="M 142.818,71.5 V 26.2 h 4.3 c 3.6,0 6.5,2.9 6.5,6.4 v 20.2 c 7,-6.2 12.9,-8.7 20.8,-8.8 15.1,-0.3 28.2,10.9 29.5,26 1.5,18 -11.6,31.5 -28.7,31.5 -18.8,-0.1 -32.4,-11.7 -32.4,-30 z m 10.6,3.6 c 1.1,9.4 10,17.1 19.5,17.3 12.3,0.2 20.7,-7.8 20.7,-19.7 0,-11.9 -8.3,-19.7 -20.2,-19.7 -12.8,0 -21.5,9.2 -20,22.1 z m 68.3,-30.1 v 8.1 c 6.8,-7.5 10.8,-9.5 18.7,-9.5 2.3,0 4.6,0.2 6.9,0.6 v 10.7 c -2.4,-0.7 -4.9,-1 -7.4,-1 -5.7,0 -10.5,1.9 -14.1,5.4 -3.1,3.1 -4,5.5 -4,10.4 v 29.9 h -11.2 V 45 Z m 28.2,18.1 c 0.6,-5.3 1.6,-8.2 3.9,-10.9 4.6,-5.6 12.8,-8.5 24.5,-8.5 9.3,0 16,1.4 20.7,4.5 3.9,2.5 5.5,6.3 5.5,12.9 v 24.2 c 0,5.3 1.4,7.2 5.2,7.1 0.8,0 1.7,-0.1 2.5,-0.2 v 7.3 c -1.9,0.6 -3.9,0.9 -5.8,0.9 -7,0 -10.2,-2.1 -12.4,-8.2 -6.9,6.3 -14,9 -24.2,9 -13.6,0 -22,-6.2 -22,-16.3 -0.1,-5.7 3.3,-11 8.6,-13.3 4.1,-1.8 6.6,-2.3 18.4,-3.5 10.1,-1 11.8,-1.2 14.7,-2.1 3.1,-1 4.5,-2.7 4.5,-5.4 0,-5.9 -4.9,-8.5 -15.2,-8.5 -9.7,0 -14.8,1.9 -16.8,6.9 -1,2.5 -3.4,4.2 -6.1,4.2 z m 44.1,9.3 c -7.1,2.1 -14.3,3.4 -21.7,4 -10,1 -13.1,2.9 -13.1,7.8 0,5.5 4.6,8.4 13.6,8.4 7.4,0 13.1,-1.9 17.1,-5.5 3.2,-3 4,-5.1 4,-10.3 v -4.4 z m 45.1,27.1 h -2.9 c -2.5,0 -4.8,-1.4 -5.9,-3.7 l -24,-50.8 h 6.7 c 3.9,0 7.4,2.2 9,5.8 l 16,36.5 16.6,-36.6 c 1.6,-3.5 5.1,-5.7 9,-5.7 h 6.1 l -24.6,50.9 c -1.2,2.3 -3.5,3.7 -6,3.6 z m 38.1,-24 c 1.1,10.5 9.4,17 21.6,17 7,0 12.2,-2.1 15.4,-6.2 1.9,-2.4 4.8,-3.7 7.8,-3.7 h 6.5 c -5.7,12.3 -15.7,18.4 -30.7,18.4 -18.7,0 -31.4,-11.4 -31.4,-28.4 0,-17 12.9,-29 31.6,-29 13.5,0 24.4,6.1 28.8,16.3 1.9,4.7 2.7,8.8 2.7,15.6 z m 41,-8.5 c -2.5,-9.6 -10,-15 -20.3,-15 -10.3,0 -17.8,5.4 -20.4,15 z"
       id="path6" />
    <path
       fill="url(#a)"
       d="m 108.4,31.6 3.1,-7.6 c 0,0 -3.9,-4.2 -8.7,-9 C 98,10.2 87.9,13 87.9,13 L 76.4,0 H 35.9 L 24.4,13.1 c 0,0 -10.1,-2.8 -14.9,2 -4.8,4.8 -8.7,9 -8.7,9 L 3.9,31.7 0,42.9 c 0,0 11.6,43.8 12.9,49.2 2.7,10.5 4.5,14.6 12.1,20 7.6,5.4 21.3,14.6 23.6,16 2.2,1.4 5.1,3.8 7.6,3.8 2.5,0 5.3,-2.4 7.6,-3.8 2.2,-1.4 16,-10.7 23.6,-16 7.6,-5.3 9.4,-9.4 12.1,-20 1.4,-5.4 12.9,-49.2 12.9,-49.2 z"
       id="path7"
       style="fill:url(#a)" />
    <path
       fill="#ffffff"
       d="m 84.7,21.4 c 0,0 14.8,17.9 14.8,21.8 0,3.9 -1.9,4.8 -3.8,6.8 -1.9,2 -10.1,10.7 -11.1,11.8 -1.1,1.1 -3.2,2.8 -2,5.9 1.3,3 3.2,6.9 1.1,10.9 -2.1,3.9 -5.7,6.6 -8,6.1 -2.3,-0.4 -7.8,-3.3 -9.8,-4.6 -2,-1.3 -8.3,-6.5 -8.3,-8.5 0,-2 6.6,-5.6 7.8,-6.4 1.2,-0.8 6.7,-4 6.8,-5.2 0.1,-1.2 0.1,-1.6 -1.6,-4.7 C 69,52.2 66,48.1 66.5,45.4 67,42.7 71.7,41.3 75.1,40 c 3.4,-1.3 9.9,-3.7 10.7,-4.1 0.8,-0.4 0.6,-0.7 -1.9,-1 -2.5,-0.2 -9.4,-1.2 -12.6,-0.3 -3.2,0.9 -8.5,2.2 -9,2.9 -0.4,0.7 -0.8,0.7 -0.4,3.2 0.4,2.4 2.8,14.2 3,16.3 0.2,2.1 0.7,3.5 -1.6,4 -2.2,0.5 -6,1.4 -7.3,1.4 -1.3,0 -5.1,-0.9 -7.3,-1.4 -2.2,-0.5 -1.8,-1.9 -1.6,-4 0.2,-2.1 2.5,-13.8 3,-16.3 0.4,-2.4 0.1,-2.5 -0.4,-3.2 -0.4,-0.7 -5.8,-2 -9,-2.9 -3.2,-0.9 -10.1,0 -12.6,0.3 -2.5,0.2 -2.7,0.6 -1.9,1 0.8,0.4 7.3,2.8 10.7,4.1 3.4,1.3 8.1,2.7 8.6,5.4 0.5,2.7 -2.4,6.8 -4.1,9.9 -1.6,3.1 -1.7,3.4 -1.6,4.7 0.1,1.2 5.6,4.4 6.8,5.2 1.2,0.8 7.8,4.4 7.8,6.4 0,2 -6.3,7.2 -8.3,8.5 -2,1.3 -7.4,4.1 -9.8,4.6 -2.3,0.4 -5.9,-2.2 -8,-6.1 -2.1,-3.9 -0.2,-7.8 1.1,-10.9 1.3,-3 -0.9,-4.7 -2,-5.9 -0.8,-1.2 -8.9,-9.9 -10.8,-11.8 -1.9,-2 -3.7,-3 -3.7,-6.8 0,-3.8 14.8,-21.8 14.8,-21.8 0,0 12.5,2.4 14.2,2.4 1.7,0 5.3,-1.4 8.7,-2.5 3.4,-1.1 5.6,-1.1 5.6,-1.1 0,0 2.2,0 5.6,1.1 3.4,1.1 7,2.5 8.7,2.5 1.7,0 14.2,-2.4 14.2,-2.4 z"
       id="path8" />
    <path
       fill="#ffffff"
       d="m 73.6,89.9 c 0.9,0.6 0.4,1.7 -0.5,2.2 -0.8,0.6 -12.1,9.3 -13.1,10.3 -1.1,1 -2.7,2.5 -3.8,2.5 -1.1,0 -2.7,-1.6 -3.8,-2.5 -1.1,-1 -12.3,-9.7 -13.1,-10.3 -0.8,-0.6 -1.4,-1.7 -0.5,-2.2 0.9,-0.6 3.8,-2 7.7,-4.1 4,-2.1 8.9,-3.8 9.7,-3.8 0.8,0 5.7,1.7 9.7,3.8 3.9,2.1 6.7,3.6 7.7,4.1 z"
       id="path9" />
    <path
       fill="url(#b)"
       d="M 87.9,13.1 76.4,0 H 35.9 L 24.4,13.1 c 0,0 -10.1,-2.8 -14.9,2 0,0 13.5,-1.2 18.1,6.3 0,0 12.5,2.4 14.2,2.4 1.7,0 5.3,-1.4 8.7,-2.5 3.4,-1.1 5.6,-1.1 5.6,-1.1 0,0 2.2,0 5.6,1.1 3.4,1.1 7,2.5 8.7,2.5 1.7,0 14.2,-2.4 14.2,-2.4 4.6,-7.5 18.1,-6.3 18.1,-6.3 -4.7,-4.8 -14.8,-2 -14.8,-2"
       id="path10"
       style="fill:url(#b)" />
  </g>
</svg>
